<svg xmlns="http://www.w3.org/2000/svg" width="16" height="16" viewBox="0 0 16 16">
  <path id="home_2_" data-name="home (2)" d="M16.07,6.959h0L9.541.432a1.473,1.473,0,0,0-2.083,0L.934,6.955l-.007.007a1.472,1.472,0,0,0,.98,2.51l.046,0h.26v4.8A1.726,1.726,0,0,0,3.937,16H6.491a.469.469,0,0,0,.469-.469V11.766a.787.787,0,0,1,.787-.786H9.253a.787.787,0,0,1,.787.786v3.766a.469.469,0,0,0,.469.469h2.554a1.726,1.726,0,0,0,1.724-1.724v-4.8h.241A1.473,1.473,0,0,0,16.07,6.959Zm-.664,1.419a.532.532,0,0,1-.379.157h-.71A.469.469,0,0,0,13.848,9v5.272a.787.787,0,0,1-.787.786H10.977v-3.3a1.726,1.726,0,0,0-1.724-1.724H7.746a1.726,1.726,0,0,0-1.724,1.724v3.3H3.937a.787.787,0,0,1-.787-.786V9a.469.469,0,0,0-.469-.469h-.72a.535.535,0,0,1-.369-.913h0L8.121,1.094a.535.535,0,0,1,.757,0L15.4,7.619l0,0A.537.537,0,0,1,15.406,8.379Zm0,0" transform="translate(-0.499)" fill="#38d2d9"/>
</svg>
