<svg xmlns="http://www.w3.org/2000/svg" width="16" height="16" viewBox="0 0 16 16">
  <path id="messenger" d="M8,0A8,8,0,0,0,1.061,11.982L.03,15.183a.625.625,0,0,0,.786.786l3.2-1.031A8,8,0,1,0,8,0ZM8,14.75a6.73,6.73,0,0,1-3.573-1.023.625.625,0,0,0-.523-.065l-2.311.744L2.338,12.1a.625.625,0,0,0-.065-.523A6.75,6.75,0,1,1,8,14.75ZM8.781,8A.781.781,0,1,1,8,7.219.781.781,0,0,1,8.781,8Zm3.125,0a.781.781,0,1,1-.781-.781A.781.781,0,0,1,11.906,8ZM5.656,8a.781.781,0,1,1-.781-.781A.781.781,0,0,1,5.656,8Zm0,0" fill="#fff" opacity="0.301"/>
</svg>
