<svg xmlns="http://www.w3.org/2000/svg" width="16" height="15.889" viewBox="0 0 16 15.889">
  <path id="Path_8437" data-name="Path 8437" d="M1.008-7.847A3.354,3.354,0,0,0,4.35-4.439,3.372,3.372,0,0,0,7.713-7.847a3.391,3.391,0,0,0-3.364-3.43A3.373,3.373,0,0,0,1.008-7.847Zm1.261,0a2.112,2.112,0,0,1,2.08-2.169,2.117,2.117,0,0,1,2.1,2.169A2.111,2.111,0,0,1,4.35-5.7,2.107,2.107,0,0,1,2.269-7.847ZM10.3,1.071a3.354,3.354,0,0,0,3.342,3.408,3.372,3.372,0,0,0,3.364-3.408,3.391,3.391,0,0,0-3.364-3.43A3.373,3.373,0,0,0,10.3,1.071Zm1.261,0a2.093,2.093,0,1,1,4.183,0,2.092,2.092,0,1,1-4.183,0ZM14-11.344,3,3.793l1.018.752,11-15.137Z" transform="translate(-1.008 11.344)" fill="#fff" opacity="0.301"/>
</svg>
