<svg xmlns="http://www.w3.org/2000/svg" width="15.862" height="17.625" viewBox="0 0 15.862 17.625">
  <g id="receive" transform="translate(0 0)" opacity="0.301">
    <path id="Path_8254" data-name="Path 8254" d="M15.922,130.644H14.6v-2.2a.441.441,0,0,0-.441-.441H12.4a.441.441,0,0,0,0,.881h1.322v1.762H2.262a.881.881,0,1,1,0-1.762h2.2a.441.441,0,1,0,0-.881h-2.2A1.764,1.764,0,0,0,.5,129.762v9.694a1.764,1.764,0,0,0,1.762,1.762H15.922a.441.441,0,0,0,.441-.441v-9.694A.441.441,0,0,0,15.922,130.644ZM2.262,140.337a.882.882,0,0,1-.881-.881V131.28a1.743,1.743,0,0,0,.881.245H15.481v2.644H12.4a.441.441,0,0,0-.441.441v2.644a.441.441,0,0,0,.441.441h3.084v2.644Zm13.218-3.525H12.837V135.05h2.644Zm0,0" transform="translate(-0.5 -123.594)" fill="#fff"/>
    <path id="Path_8255" data-name="Path 8255" d="M156.464,6.072a.442.442,0,0,0,.551,0l2.2-1.762a.441.441,0,0,0-.551-.688l-1.487,1.19V.441a.441.441,0,1,0-.881,0V4.811l-1.487-1.19a.441.441,0,1,0-.551.688Zm0,0" transform="translate(-148.809 0)" fill="#fff"/>
  </g>
</svg>
