<svg xmlns="http://www.w3.org/2000/svg" width="15.97" height="15.973" viewBox="0 0 15.97 15.973">
  <g id="sign-out" opacity="0.301">
    <path id="Path_8439" data-name="Path 8439" d="M16.862,7.777,14.28,5.2a.665.665,0,1,0-.941.941l2.582,2.582a1.369,1.369,0,0,1,.2.26c-.01,0-.018-.005-.028-.005h0L5.655,8.993a.666.666,0,1,0,0,1.331h0L16.089,10.3c.019,0,.034-.009.052-.011a1.331,1.331,0,0,1-.222.307l-2.582,2.582a.665.665,0,1,0,.941.941l2.582-2.582a2.662,2.662,0,0,0,0-3.764Z" transform="translate(-1.669 -1.672)" fill="#fff"/>
    <path id="Path_8440" data-name="Path 8440" d="M4.659,14.642H3.328a2,2,0,0,1-2-2V3.328a2,2,0,0,1,2-2H4.659A.666.666,0,1,0,4.659,0H3.328A3.332,3.332,0,0,0,0,3.328v9.317a3.332,3.332,0,0,0,3.328,3.328H4.659a.666.666,0,1,0,0-1.331Z" fill="#fff"/>
  </g>
</svg>
